<svg width="383" height="560" viewBox="0 0 383 560" fill="none" xmlns="http://www.w3.org/2000/svg">
<path d="M39.7891 534V454H89.3984V464.391H51.8594V488.766H85.8438V499.117H51.8594V534H39.7891ZM103.305 534V474H114.984V534H103.305ZM109.203 464.742C107.172 464.742 105.427 464.065 103.969 462.711C102.536 461.331 101.82 459.69 101.82 457.789C101.82 455.862 102.536 454.221 103.969 452.867C105.427 451.487 107.172 450.797 109.203 450.797C111.234 450.797 112.966 451.487 114.398 452.867C115.857 454.221 116.586 455.862 116.586 457.789C116.586 459.69 115.857 461.331 114.398 462.711C112.966 464.065 111.234 464.742 109.203 464.742ZM155.854 557.75C151.088 557.75 146.986 557.125 143.549 555.875C140.137 554.625 137.351 552.971 135.189 550.914C133.028 548.857 131.413 546.604 130.346 544.156L140.385 540.016C141.088 541.161 142.025 542.372 143.197 543.648C144.395 544.951 146.01 546.057 148.041 546.969C150.098 547.88 152.742 548.336 155.971 548.336C160.398 548.336 164.057 547.255 166.947 545.094C169.838 542.958 171.283 539.547 171.283 534.859V523.062H170.541C169.838 524.339 168.822 525.758 167.494 527.32C166.192 528.883 164.395 530.237 162.104 531.383C159.812 532.529 156.83 533.102 153.158 533.102C148.419 533.102 144.148 531.995 140.346 529.781C136.57 527.542 133.575 524.247 131.361 519.898C129.174 515.523 128.08 510.146 128.08 503.766C128.08 497.385 129.161 491.917 131.322 487.359C133.51 482.802 136.505 479.312 140.307 476.891C144.109 474.443 148.419 473.219 153.236 473.219C156.96 473.219 159.968 473.844 162.26 475.094C164.551 476.318 166.335 477.75 167.611 479.391C168.913 481.031 169.916 482.477 170.619 483.727H171.479V474H182.924V535.328C182.924 540.484 181.726 544.716 179.33 548.023C176.934 551.331 173.692 553.779 169.604 555.367C165.541 556.956 160.958 557.75 155.854 557.75ZM155.736 523.414C159.096 523.414 161.934 522.633 164.252 521.07C166.596 519.482 168.367 517.216 169.564 514.273C170.788 511.305 171.4 507.75 171.4 503.609C171.4 499.573 170.801 496.018 169.604 492.945C168.406 489.872 166.648 487.477 164.33 485.758C162.012 484.013 159.148 483.141 155.736 483.141C152.221 483.141 149.291 484.052 146.947 485.875C144.604 487.672 142.833 490.12 141.635 493.219C140.463 496.318 139.877 499.781 139.877 503.609C139.877 507.542 140.476 510.992 141.674 513.961C142.872 516.93 144.643 519.247 146.986 520.914C149.356 522.581 152.273 523.414 155.736 523.414ZM198.588 534V474H209.799V483.766H210.541C211.791 480.458 213.835 477.88 216.674 476.031C219.512 474.156 222.911 473.219 226.869 473.219C230.88 473.219 234.239 474.156 236.947 476.031C239.682 477.906 241.7 480.484 243.002 483.766H243.627C245.059 480.562 247.338 478.01 250.463 476.109C253.588 474.182 257.312 473.219 261.635 473.219C267.077 473.219 271.518 474.924 274.955 478.336C278.419 481.747 280.15 486.891 280.15 493.766V534H268.471V494.859C268.471 490.797 267.364 487.854 265.15 486.031C262.937 484.208 260.294 483.297 257.221 483.297C253.419 483.297 250.463 484.469 248.354 486.812C246.244 489.13 245.189 492.112 245.189 495.758V534H233.549V494.117C233.549 490.862 232.533 488.245 230.502 486.266C228.471 484.286 225.827 483.297 222.572 483.297C220.359 483.297 218.314 483.883 216.439 485.055C214.59 486.201 213.093 487.802 211.947 489.859C210.827 491.917 210.268 494.299 210.268 497.008V534H198.588ZM313.266 535.328C309.464 535.328 306.026 534.625 302.953 533.219C299.88 531.786 297.445 529.716 295.648 527.008C293.878 524.299 292.992 520.979 292.992 517.047C292.992 513.661 293.643 510.875 294.945 508.687C296.247 506.5 298.005 504.768 300.219 503.492C302.432 502.216 304.906 501.253 307.641 500.602C310.375 499.951 313.161 499.456 316 499.117C319.594 498.701 322.51 498.362 324.75 498.102C326.99 497.815 328.617 497.359 329.633 496.734C330.648 496.109 331.156 495.094 331.156 493.687V493.414C331.156 490.003 330.193 487.359 328.266 485.484C326.365 483.609 323.526 482.672 319.75 482.672C315.818 482.672 312.719 483.544 310.453 485.289C308.214 487.008 306.664 488.922 305.805 491.031L294.828 488.531C296.13 484.885 298.031 481.943 300.531 479.703C303.057 477.437 305.961 475.797 309.242 474.781C312.523 473.74 315.974 473.219 319.594 473.219C321.99 473.219 324.529 473.505 327.211 474.078C329.919 474.625 332.445 475.641 334.789 477.125C337.159 478.609 339.099 480.732 340.609 483.492C342.12 486.227 342.875 489.781 342.875 494.156V534H331.469V525.797H331C330.245 527.307 329.112 528.792 327.602 530.25C326.091 531.708 324.151 532.919 321.781 533.883C319.411 534.846 316.573 535.328 313.266 535.328ZM315.805 525.953C319.034 525.953 321.794 525.315 324.086 524.039C326.404 522.763 328.161 521.096 329.359 519.039C330.583 516.956 331.195 514.729 331.195 512.359V504.625C330.779 505.042 329.971 505.432 328.773 505.797C327.602 506.135 326.26 506.435 324.75 506.695C323.24 506.93 321.768 507.151 320.336 507.359C318.904 507.542 317.706 507.698 316.742 507.828C314.477 508.115 312.406 508.596 310.531 509.273C308.682 509.951 307.198 510.927 306.078 512.203C304.984 513.453 304.437 515.12 304.437 517.203C304.437 520.094 305.505 522.281 307.641 523.766C309.776 525.224 312.497 525.953 315.805 525.953Z" fill="black"/>
<rect width="382.885" height="387.337" rx="40" fill="#282832"/>
<path d="M142.023 341.925C169.376 341.925 191.442 319.859 191.442 292.507V243.088H142.023C114.671 243.088 92.6045 265.154 92.6045 292.507C92.6045 319.859 114.671 341.925 142.023 341.925Z" fill="#0ACF83"/>
<path d="M92.6045 193.668C92.6045 166.316 114.671 144.25 142.023 144.25H191.442V243.087H142.023C114.671 243.087 92.6045 221.021 92.6045 193.668Z" fill="#A259FF"/>
<path d="M92.6045 94.8305C92.6045 67.4777 114.671 45.4116 142.023 45.4116H191.442V144.249H142.023C114.671 144.249 92.6045 122.183 92.6045 94.8305Z" fill="#F24E1E"/>
<path d="M191.442 45.4116H240.861C268.214 45.4116 290.28 67.4777 290.28 94.8305C290.28 122.183 268.214 144.249 240.861 144.249H191.442V45.4116Z" fill="#FF7262"/>
<path d="M290.28 193.668C290.28 221.021 268.214 243.087 240.861 243.087C213.508 243.087 191.442 221.021 191.442 193.668C191.442 166.316 213.508 144.25 240.861 144.25C268.214 144.25 290.28 166.316 290.28 193.668Z" fill="#1ABCFE"/>
</svg>
