<svg width="354" height="515" viewBox="0 0 354 515" fill="none" xmlns="http://www.w3.org/2000/svg">
<path d="M45.5906 493V423.909H88.435V432.883H56.0149V453.934H85.3651V462.874H56.0149V493H45.5906ZM100.445 493V441.182H110.532V493H100.445ZM105.539 433.186C103.785 433.186 102.278 432.602 101.018 431.432C99.7815 430.24 99.163 428.823 99.163 427.181C99.163 425.517 99.7815 424.1 101.018 422.931C102.278 421.739 103.785 421.143 105.539 421.143C107.293 421.143 108.789 421.739 110.026 422.931C111.285 424.1 111.915 425.517 111.915 427.181C111.915 428.823 111.285 430.24 110.026 431.432C108.789 432.602 107.293 433.186 105.539 433.186ZM145.828 513.511C141.712 513.511 138.17 512.972 135.201 511.892C132.255 510.813 129.849 509.384 127.982 507.608C126.115 505.831 124.721 503.885 123.799 501.771L132.469 498.195C133.076 499.185 133.886 500.231 134.898 501.333C135.932 502.457 137.327 503.413 139.081 504.2C140.858 504.987 143.14 505.381 145.929 505.381C149.753 505.381 152.913 504.448 155.409 502.581C157.905 500.737 159.154 497.79 159.154 493.742V483.554H158.513C157.905 484.656 157.028 485.882 155.881 487.231C154.757 488.581 153.205 489.75 151.226 490.74C149.247 491.729 146.671 492.224 143.5 492.224C139.407 492.224 135.719 491.268 132.435 489.357C129.174 487.422 126.587 484.577 124.676 480.821C122.786 477.043 121.842 472.399 121.842 466.888C121.842 461.378 122.775 456.655 124.642 452.719C126.531 448.784 129.118 445.77 132.401 443.678C135.685 441.564 139.407 440.507 143.568 440.507C146.784 440.507 149.382 441.047 151.361 442.126C153.34 443.183 154.88 444.42 155.983 445.837C157.107 447.254 157.973 448.502 158.58 449.582H159.322V441.182H169.207V494.147C169.207 498.6 168.172 502.255 166.103 505.111C164.034 507.967 161.234 510.082 157.703 511.453C154.195 512.825 150.236 513.511 145.828 513.511ZM145.727 483.858C148.628 483.858 151.08 483.183 153.081 481.833C155.105 480.462 156.635 478.505 157.669 475.963C158.726 473.4 159.255 470.33 159.255 466.754C159.255 463.268 158.738 460.198 157.703 457.544C156.668 454.89 155.15 452.821 153.149 451.336C151.147 449.829 148.673 449.076 145.727 449.076C142.691 449.076 140.16 449.863 138.136 451.438C136.112 452.989 134.583 455.103 133.548 457.78C132.536 460.456 132.03 463.447 132.03 466.754C132.03 470.15 132.547 473.13 133.582 475.694C134.617 478.257 136.146 480.259 138.17 481.699C140.217 483.138 142.736 483.858 145.727 483.858ZM182.735 493V441.182H192.417V449.616H193.058C194.138 446.759 195.903 444.533 198.355 442.936C200.806 441.317 203.741 440.507 207.16 440.507C210.623 440.507 213.525 441.317 215.864 442.936C218.225 444.555 219.968 446.782 221.093 449.616H221.632C222.869 446.849 224.837 444.645 227.536 443.004C230.235 441.339 233.451 440.507 237.185 440.507C241.885 440.507 245.72 441.98 248.688 444.926C251.68 447.873 253.175 452.315 253.175 458.252V493H243.088V459.197C243.088 455.688 242.132 453.147 240.221 451.572C238.309 449.998 236.026 449.211 233.372 449.211C230.089 449.211 227.536 450.223 225.714 452.247C223.893 454.249 222.982 456.824 222.982 459.973V493H212.929V458.556C212.929 455.744 212.051 453.484 210.297 451.775C208.543 450.066 206.26 449.211 203.449 449.211C201.537 449.211 199.772 449.717 198.152 450.729C196.555 451.719 195.262 453.102 194.273 454.879C193.306 456.655 192.822 458.713 192.822 461.052V493H182.735ZM281.775 494.147C278.491 494.147 275.522 493.54 272.869 492.325C270.215 491.088 268.112 489.3 266.56 486.961C265.031 484.622 264.266 481.755 264.266 478.359C264.266 475.435 264.828 473.028 265.953 471.139C267.077 469.25 268.595 467.754 270.507 466.652C272.419 465.55 274.555 464.718 276.917 464.156C279.278 463.594 281.685 463.166 284.136 462.874C287.24 462.514 289.759 462.222 291.693 461.997C293.627 461.749 295.033 461.356 295.91 460.816C296.787 460.276 297.226 459.399 297.226 458.185V457.949C297.226 455.002 296.394 452.719 294.729 451.1C293.088 449.481 290.636 448.671 287.375 448.671C283.979 448.671 281.303 449.425 279.346 450.931C277.412 452.416 276.074 454.069 275.331 455.891L265.852 453.732C266.976 450.583 268.618 448.041 270.777 446.107C272.959 444.151 275.466 442.734 278.3 441.857C281.134 440.957 284.114 440.507 287.24 440.507C289.309 440.507 291.502 440.754 293.819 441.249C296.158 441.722 298.339 442.599 300.363 443.881C302.41 445.163 304.085 446.996 305.39 449.38C306.694 451.741 307.347 454.811 307.347 458.589V493H297.496V485.915H297.091C296.439 487.22 295.46 488.502 294.156 489.761C292.851 491.021 291.176 492.067 289.129 492.899C287.083 493.731 284.631 494.147 281.775 494.147ZM283.968 486.05C286.757 486.05 289.141 485.499 291.12 484.397C293.121 483.295 294.639 481.856 295.674 480.079C296.731 478.28 297.26 476.357 297.26 474.31V467.631C296.9 467.991 296.203 468.328 295.168 468.643C294.156 468.935 292.998 469.194 291.693 469.419C290.389 469.621 289.118 469.812 287.881 469.992C286.644 470.15 285.609 470.285 284.777 470.397C282.821 470.644 281.033 471.06 279.413 471.645C277.817 472.23 276.535 473.073 275.567 474.175C274.623 475.255 274.151 476.694 274.151 478.494C274.151 480.99 275.073 482.879 276.917 484.161C278.761 485.421 281.111 486.05 283.968 486.05Z" fill="black"/>
<rect width="353.885" height="358" rx="40" fill="#282832"/>
<path d="M131.267 316.027C156.548 316.027 176.943 295.632 176.943 270.351V224.676H131.267C105.986 224.676 85.5908 245.07 85.5908 270.351C85.5908 295.632 105.986 316.027 131.267 316.027Z" fill="#0ACF83"/>
<path d="M85.5908 179C85.5908 153.719 105.986 133.324 131.267 133.324H176.943V224.675H131.267C105.986 224.675 85.5908 204.281 85.5908 179Z" fill="#A259FF"/>
<path d="M85.5908 87.648C85.5908 62.367 105.986 41.9722 131.267 41.9722H176.943V133.324H131.267C105.986 133.324 85.5908 112.929 85.5908 87.648Z" fill="#F24E1E"/>
<path d="M176.942 41.9722H222.618C247.899 41.9722 268.294 62.367 268.294 87.648C268.294 112.929 247.899 133.324 222.618 133.324H176.942V41.9722Z" fill="#FF7262"/>
<path d="M268.294 179C268.294 204.281 247.899 224.675 222.618 224.675C197.337 224.675 176.942 204.281 176.942 179C176.942 153.719 197.337 133.324 222.618 133.324C247.899 133.324 268.294 153.719 268.294 179Z" fill="#1ABCFE"/>
</svg>
