<svg width="383" height="572" viewBox="0 0 383 572" fill="none" xmlns="http://www.w3.org/2000/svg">
<path d="M25.5881 543V455.727H79.7074V467.062H38.7557V493.653H75.8295V504.946H38.7557V543H25.5881ZM94.8778 543V477.545H107.619V543H94.8778ZM101.312 467.446C99.0966 467.446 97.1932 466.707 95.6023 465.23C94.0398 463.724 93.2585 461.935 93.2585 459.861C93.2585 457.759 94.0398 455.969 95.6023 454.491C97.1932 452.986 99.0966 452.233 101.312 452.233C103.528 452.233 105.418 452.986 106.98 454.491C108.571 455.969 109.366 457.759 109.366 459.861C109.366 461.935 108.571 463.724 106.98 465.23C105.418 466.707 103.528 467.446 101.312 467.446ZM152.204 568.909C147.005 568.909 142.531 568.227 138.781 566.864C135.059 565.5 132.019 563.696 129.661 561.452C127.303 559.207 125.542 556.75 124.377 554.08L135.329 549.562C136.096 550.812 137.119 552.134 138.397 553.526C139.704 554.946 141.465 556.153 143.681 557.148C145.925 558.142 148.809 558.639 152.332 558.639C157.161 558.639 161.153 557.46 164.306 555.102C167.46 552.773 169.036 549.051 169.036 543.938V531.068H168.227C167.46 532.46 166.352 534.009 164.903 535.713C163.482 537.418 161.522 538.895 159.022 540.145C156.522 541.395 153.269 542.02 149.263 542.02C144.093 542.02 139.434 540.812 135.286 538.398C131.167 535.955 127.9 532.361 125.485 527.616C123.099 522.844 121.906 516.977 121.906 510.017C121.906 503.057 123.085 497.091 125.442 492.119C127.829 487.148 131.096 483.341 135.244 480.699C139.391 478.028 144.093 476.693 149.349 476.693C153.411 476.693 156.692 477.375 159.192 478.739C161.692 480.074 163.638 481.636 165.031 483.426C166.451 485.216 167.545 486.793 168.312 488.156H169.249V477.545H181.735V544.449C181.735 550.074 180.428 554.69 177.815 558.298C175.201 561.906 171.664 564.577 167.204 566.31C162.772 568.043 157.772 568.909 152.204 568.909ZM152.076 531.452C155.741 531.452 158.837 530.599 161.366 528.895C163.923 527.162 165.854 524.69 167.161 521.48C168.496 518.241 169.164 514.364 169.164 509.847C169.164 505.443 168.511 501.565 167.204 498.213C165.897 494.861 163.979 492.247 161.451 490.372C158.923 488.469 155.798 487.517 152.076 487.517C148.241 487.517 145.045 488.511 142.488 490.5C139.931 492.46 137.999 495.131 136.692 498.511C135.414 501.892 134.775 505.67 134.775 509.847C134.775 514.136 135.428 517.901 136.735 521.139C138.042 524.378 139.974 526.906 142.531 528.724C145.116 530.543 148.298 531.452 152.076 531.452ZM198.823 543V477.545H211.053V488.199H211.863C213.227 484.591 215.457 481.778 218.553 479.761C221.65 477.716 225.357 476.693 229.675 476.693C234.05 476.693 237.715 477.716 240.67 479.761C243.653 481.807 245.854 484.619 247.275 488.199H247.957C249.519 484.705 252.005 481.92 255.414 479.847C258.823 477.744 262.886 476.693 267.602 476.693C273.539 476.693 278.383 478.554 282.133 482.276C285.911 485.997 287.8 491.608 287.8 499.108V543H275.059V500.301C275.059 495.869 273.852 492.659 271.437 490.67C269.022 488.682 266.138 487.688 262.786 487.688C258.638 487.688 255.414 488.966 253.113 491.523C250.812 494.051 249.661 497.304 249.661 501.281V543H236.962V499.491C236.962 495.94 235.854 493.085 233.638 490.926C231.423 488.767 228.539 487.688 224.988 487.688C222.573 487.688 220.343 488.327 218.298 489.605C216.281 490.855 214.647 492.602 213.397 494.847C212.175 497.091 211.565 499.69 211.565 502.645V543H198.823ZM323.926 544.449C319.778 544.449 316.028 543.682 312.676 542.148C309.324 540.585 306.668 538.327 304.707 535.372C302.776 532.418 301.81 528.795 301.81 524.506C301.81 520.812 302.52 517.773 303.94 515.386C305.361 513 307.278 511.111 309.693 509.719C312.108 508.327 314.807 507.276 317.79 506.565C320.773 505.855 323.813 505.315 326.909 504.946C330.83 504.491 334.011 504.122 336.455 503.838C338.898 503.526 340.673 503.028 341.781 502.347C342.889 501.665 343.443 500.557 343.443 499.023V498.724C343.443 495.003 342.392 492.119 340.29 490.074C338.216 488.028 335.119 487.006 331 487.006C326.71 487.006 323.33 487.957 320.858 489.861C318.415 491.736 316.724 493.824 315.787 496.125L303.812 493.398C305.233 489.42 307.307 486.21 310.034 483.767C312.79 481.295 315.957 479.506 319.537 478.398C323.116 477.261 326.881 476.693 330.83 476.693C333.443 476.693 336.213 477.006 339.139 477.631C342.094 478.227 344.849 479.335 347.406 480.955C349.991 482.574 352.108 484.889 353.756 487.901C355.403 490.884 356.227 494.761 356.227 499.534V543H343.784V534.051H343.273C342.449 535.699 341.213 537.318 339.565 538.909C337.918 540.5 335.801 541.821 333.216 542.872C330.631 543.923 327.534 544.449 323.926 544.449ZM326.696 534.222C330.219 534.222 333.23 533.526 335.73 532.134C338.259 530.741 340.176 528.923 341.483 526.679C342.818 524.406 343.486 521.977 343.486 519.392V510.955C343.031 511.409 342.151 511.835 340.844 512.233C339.565 512.602 338.102 512.929 336.455 513.213C334.807 513.469 333.202 513.71 331.639 513.938C330.077 514.136 328.77 514.307 327.719 514.449C325.247 514.761 322.989 515.287 320.943 516.026C318.926 516.764 317.307 517.83 316.085 519.222C314.892 520.585 314.295 522.403 314.295 524.676C314.295 527.83 315.46 530.216 317.79 531.835C320.119 533.426 323.088 534.222 326.696 534.222Z" fill="black"/>
<rect width="382.885" height="387.337" rx="40" fill="#282832"/>
<path d="M142.023 341.925C169.376 341.925 191.442 319.859 191.442 292.507V243.088H142.023C114.671 243.088 92.6045 265.154 92.6045 292.507C92.6045 319.859 114.671 341.925 142.023 341.925Z" fill="#0ACF83"/>
<path d="M92.6045 193.668C92.6045 166.316 114.671 144.25 142.023 144.25H191.442V243.087H142.023C114.671 243.087 92.6045 221.021 92.6045 193.668Z" fill="#A259FF"/>
<path d="M92.6045 94.8305C92.6045 67.4777 114.671 45.4116 142.023 45.4116H191.442V144.249H142.023C114.671 144.249 92.6045 122.183 92.6045 94.8305Z" fill="#F24E1E"/>
<path d="M191.442 45.4116H240.861C268.214 45.4116 290.28 67.4777 290.28 94.8305C290.28 122.183 268.214 144.249 240.861 144.249H191.442V45.4116Z" fill="#FF7262"/>
<path d="M290.28 193.668C290.28 221.021 268.214 243.087 240.861 243.087C213.508 243.087 191.442 221.021 191.442 193.668C191.442 166.316 213.508 144.25 240.861 144.25C268.214 144.25 290.28 166.316 290.28 193.668Z" fill="#1ABCFE"/>
</svg>
