<svg width="652" height="511" viewBox="0 0 652 511" fill="none" xmlns="http://www.w3.org/2000/svg">
<path d="M449.36 208.601L249.392 8.63689C237.883 -2.87896 219.206 -2.87896 207.679 8.63689L166.159 50.1651L218.832 102.839C231.077 98.7065 245.11 101.478 254.866 111.235C264.673 121.053 267.423 135.206 263.189 147.491L313.954 198.26C326.236 194.026 340.411 196.762 350.214 206.587C363.928 220.291 363.928 242.506 350.214 256.217C346.955 259.478 343.085 262.064 338.826 263.829C334.567 265.594 330.002 266.502 325.392 266.502C320.782 266.502 316.217 265.594 311.958 263.829C307.699 262.064 303.829 259.478 300.57 256.217C295.674 251.317 292.336 245.079 290.977 238.286C289.618 231.494 290.298 224.451 292.933 218.045L245.593 170.704L245.586 295.3C249.02 296.991 252.156 299.231 254.87 301.932C268.577 315.636 268.577 337.844 254.87 351.576C241.159 365.28 218.937 365.28 205.241 351.576C191.534 337.847 191.534 315.639 205.241 301.932C208.525 298.643 212.431 296.04 216.731 294.276V168.527C212.427 166.768 208.52 164.164 205.241 160.868C194.857 150.492 192.357 135.253 197.683 122.497L145.754 70.5663L8.63933 207.675C3.10757 213.209 0 220.713 0 228.537C0 236.362 3.10757 243.866 8.63933 249.399L208.611 449.363C220.127 460.879 238.797 460.879 250.331 449.363L449.364 250.328C454.894 244.793 458.001 237.288 458 229.464C457.999 221.639 454.892 214.135 449.36 208.601Z" fill="#F34F29"/>
<path d="M529.678 295.122C525.208 296.141 523.012 297.317 520.424 299.827C517.837 302.415 515.562 308.845 515.562 313.393C515.562 316.843 517.68 324.528 518.699 324.842C519.091 324.999 519.483 325.469 519.483 325.861C519.483 326.881 521.914 329.076 524.973 330.801C528.658 332.919 540.499 332.997 544.655 330.958C557.908 324.607 557.986 301.866 544.812 296.376C541.44 294.965 533.363 294.338 529.678 295.122Z" fill="black"/>
<path d="M594.528 315.353C594.214 315.589 593.979 317.078 593.979 318.647C593.901 325.391 589.196 337.781 585.04 341.937C582.452 344.524 574.375 348.367 570.297 348.916L566.533 349.386V359.188V368.912H574.375H582.217V399.887C582.217 432.665 582.766 438.703 586.137 446.153C590.294 455.249 598.449 459.641 612.642 460.346C625.66 461.052 636.011 459.248 648.714 453.995C652.165 452.505 652.635 451.407 651.302 447.956C650.91 446.937 649.812 443.408 648.793 440.036C646.754 433.371 646.519 433.214 641.029 435.174C638.99 435.88 634.834 436.351 630.208 436.351C624.17 436.351 622.288 436.037 620.249 434.782C615.387 431.724 615.152 430.313 615.152 397.926V368.912H630.835H646.519V357.934V346.955H630.835H615.152V330.88V314.804H605.114C599.547 314.804 594.763 315.04 594.528 315.353Z" fill="black"/>
<path d="M427.343 349.778C412.6 350.876 397.936 359.816 392.133 371.265C388.213 378.793 386.723 391.183 388.605 399.338C389.703 404.2 392.604 411.257 393.388 411.257C393.702 411.257 394.016 411.649 394.016 412.12C394.016 413.218 401.151 420.589 402.171 420.667C402.563 420.667 403.504 421.216 404.21 421.844C405.386 422.942 404.837 423.726 397.623 430.94C388.369 440.115 386.958 442.546 386.958 448.898C386.958 454.308 388.762 457.994 392.839 460.739L395.427 462.542L392.996 465.365C385.625 473.756 384.605 476.03 384.605 484.028C384.684 493.674 388.448 499.869 396.995 504.182C412.13 511.788 445.222 513.278 466.63 507.397C470.707 506.299 478.941 502.613 480.902 501.123C492.037 492.419 495.958 484.891 495.879 472.423C495.801 449.603 485.058 443.33 442.242 440.977C434.479 440.585 425.618 439.958 422.559 439.644L416.913 439.095L420.442 433.763C423.187 429.529 424.206 428.509 425.225 428.98C426.01 429.293 431.891 429.764 438.321 429.921C452.201 430.234 459.023 428.98 466.943 424.431C467.571 424.118 468.668 423.569 469.296 423.255C473.138 421.608 482.627 411.493 482.627 409.062C482.627 408.67 483.254 407.18 484.038 405.69C485.136 403.573 485.371 401.063 485.293 393.221C485.293 382.949 484.822 381.224 480.196 373.931L478.706 371.5L485.842 370.951C489.763 370.637 493.997 370.245 495.252 369.932L497.526 369.461V360.6V351.66H476.902C465.61 351.66 455.181 351.347 453.769 350.955C450.868 350.092 433.302 349.308 427.343 349.778ZM448.202 372.676C451.495 374.323 453.534 376.205 455.573 379.499C456.749 381.302 457.063 383.419 457.063 388.909C457.141 395.025 456.906 396.358 455.338 398.946C451.025 405.847 442.869 408.826 432.597 407.18C427.264 406.396 426.48 406.003 423.03 402.632C419.658 399.338 419.187 398.475 418.717 394.555C418.011 388.909 418.874 381.929 420.599 379.028C422.089 376.597 424.52 374.558 428.127 372.598C431.656 370.716 444.516 370.794 448.202 372.676ZM444.594 470.541C462.003 472.031 463.807 472.815 463.807 478.618C463.807 481.676 463.415 482.774 461.376 484.813C457.612 488.655 452.593 489.831 438.4 490.223C424.206 490.615 417.07 489.361 412.679 485.675C410.405 483.793 410.169 483.244 410.169 479.323C410.248 476.03 410.718 474.461 412.522 471.874L414.796 468.659L422.638 468.972C426.951 469.208 436.831 469.913 444.594 470.541Z" fill="black"/>
<path d="M509.29 353.386C508.741 355.66 508.192 359.659 507.957 362.325L507.564 367.03L511.721 368.442C514.073 369.148 517.21 370.402 518.7 371.108L521.444 372.441L521.68 406.709L521.836 440.977L518.935 441.762C517.288 442.232 514.073 442.781 511.877 443.095L507.721 443.644V452.113V460.66L538.147 460.503L568.494 460.268L568.73 452.034L568.965 443.801L562.456 442.781C558.3 442.154 555.634 441.291 555.007 440.507C554.223 439.488 553.987 428.98 553.987 394.241V349.308H532.109H510.231L509.29 353.386Z" fill="black"/>
</svg>
