<svg width="1236" height="512" viewBox="0 0 1236 512" fill="none" xmlns="http://www.w3.org/2000/svg">
<path d="M942.297 2.95747C925.897 10.0134 918.269 25.4601 919.794 47.772C921.701 72.1816 934.478 85.1492 958.697 87.2469C991.116 89.726 1009.04 74.2793 1009.04 43.3859C1008.85 22.0275 1001.8 9.63198 985.777 2.76677C976.432 -1.04723 951.26 -0.856527 942.297 2.95747Z" fill="#3A2D01"/>
<path d="M1101.53 53.302C1100.77 57.4974 1100.01 62.837 1099.82 65.3161C1098.67 75.2325 1092 92.2049 1085.51 101.358C1076.36 114.517 1059.96 123.67 1040.51 126.531C1036.88 127.103 1036.69 128.629 1036.69 148.843V170.583L1054.24 171.155C1065.3 171.536 1072.35 172.49 1073.69 174.015C1075.02 175.732 1075.79 204.527 1076.17 257.542L1076.74 338.399L1083.03 351.176C1094.48 374.25 1110.88 383.023 1146.35 384.548C1162.36 385.311 1172.85 384.739 1185.06 382.45C1204.7 378.636 1233.88 368.529 1235.21 365.097C1236.17 362.808 1225.87 324.859 1223.77 322.761C1223.2 322.189 1217.29 323.143 1210.8 325.05C1194.59 329.627 1172.09 329.817 1164.08 325.431C1151.3 318.566 1151.11 317.422 1150.54 240.57L1149.97 171.536H1187.35H1224.53V146.745V121.954L1187.92 121.573L1151.11 121.001L1150.54 83.2419L1150.16 45.674H1126.51H1102.87L1101.53 53.302Z" fill="#3A2D01"/>
<path d="M725.851 128.056C687.902 129.773 665.209 137.782 646.902 156.471C625.734 177.829 616.39 215.206 624.78 246.863C629.739 266.123 643.469 285.956 656.437 292.821C659.488 294.347 661.967 296.063 661.967 296.635C661.967 297.207 654.911 304.835 646.52 313.226C624.78 334.966 620.013 342.976 620.013 356.897C620.013 370.246 623.064 376.92 632.79 384.93L639.846 390.841L631.073 399.804C619.441 412.009 615.817 419.637 614.673 434.893C612.576 463.879 627.832 482.759 661.967 493.819C685.614 501.257 747.782 503.736 781.727 498.587C798.699 496.108 824.253 487.717 834.741 481.233C862.202 464.261 873.644 443.474 873.644 410.674C873.644 390.651 870.783 381.116 861.439 369.101C846.374 350.222 823.299 344.501 737.866 338.208C712.884 336.301 692.479 334.394 692.479 333.631C692.479 333.059 695.53 327.529 699.344 321.426C705.637 311.51 706.781 310.556 711.358 311.701C714.028 312.273 725.851 313.417 737.484 313.989C791.834 316.659 830.927 296.445 845.42 257.733C848.662 249.342 849.616 242.477 849.616 227.793C849.806 210.82 849.234 207.388 844.467 197.281C841.606 190.988 837.792 184.504 836.076 182.597C834.36 180.69 833.406 178.783 833.788 178.401C834.169 178.02 844.085 177.066 855.527 176.113L876.504 174.397L877.077 153.038L877.649 131.68L824.634 130.917C795.457 130.536 767.424 129.391 762.084 128.438C756.936 127.484 740.535 127.294 725.851 128.056ZM760.75 180.118C775.815 186.601 784.015 200.141 784.015 219.211C784.015 230.462 780.964 239.425 773.908 248.198C768.568 254.872 754.838 260.212 740.726 260.784C717.461 262.119 704.493 255.444 696.674 238.663C692.67 229.89 692.097 226.458 693.242 217.113C695.911 190.415 710.786 177.448 738.819 177.257C747.973 177.257 756.363 178.401 760.75 180.118ZM753.312 408.004C783.824 410.102 793.741 412.772 797.173 419.065C804.038 431.842 792.596 446.526 772.382 451.102C761.322 453.772 718.033 454.154 705.065 451.865C689.618 449.195 685.995 447.67 678.748 440.805C670.358 433.177 671.502 423.07 681.99 408.958L686.376 403.046L705.065 404.381C715.554 405.144 737.103 406.86 753.312 408.004Z" fill="#3A2D01"/>
<path d="M951.449 127.294L904.155 127.675L903.965 133.015C903.583 141.787 903.011 147.317 901.486 157.424L899.96 167.341L911.211 171.345C917.314 173.443 924.37 176.494 927.039 177.829L931.807 180.308L932.379 258.114C932.57 309.031 932.188 336.873 930.853 338.399C929.709 339.733 922.463 341.831 914.644 342.975L900.341 345.264V365.287V385.12H970.9H1041.46V365.287V345.454L1028.68 343.166C1021.44 342.022 1014.19 340.496 1012.47 339.924C1009.23 339.161 1009.04 332.487 1009.04 233.514V128.056L1003.89 127.484C1000.84 127.103 977.384 126.912 951.449 127.294Z" fill="#3A2D01"/>
<path d="M500.106 234.439L277.555 11.8968C264.747 -0.919372 243.96 -0.919372 231.132 11.8968L184.923 58.1141L243.544 116.736C257.172 112.137 272.79 115.222 283.648 126.079C294.562 137.006 297.623 152.757 292.911 166.43L349.409 222.931C363.077 218.219 378.853 221.264 389.763 232.198C405.026 247.449 405.026 272.173 389.763 287.432C386.136 291.061 381.829 293.94 377.089 295.904C372.349 297.868 367.269 298.879 362.138 298.879C357.007 298.879 351.927 297.868 347.187 295.904C342.447 293.94 338.14 291.061 334.513 287.432C329.064 281.979 325.349 275.036 323.836 267.477C322.324 259.917 323.081 252.08 326.013 244.95L273.327 192.264L273.319 330.928C277.142 332.81 280.632 335.303 283.652 338.309C298.907 353.56 298.907 378.276 283.652 393.559C268.393 408.81 243.661 408.81 228.418 393.559C213.163 378.28 213.163 353.564 228.418 338.309C232.073 334.648 236.42 331.752 241.206 329.789V189.841C236.416 187.884 232.068 184.985 228.418 181.317C216.862 169.769 214.08 152.81 220.007 138.613L162.214 80.819L9.61495 233.41C3.4585 239.568 0 247.919 0 256.627C0 265.335 3.4585 273.687 9.61495 279.845L232.17 502.387C244.986 515.204 265.764 515.204 278.601 502.387L500.11 280.879C506.265 274.719 509.722 266.366 509.721 257.658C509.72 248.95 506.262 240.598 500.106 234.439Z" fill="#F34F29"/>
</svg>
