<svg width="378" height="512" viewBox="0 0 378 512" fill="none" xmlns="http://www.w3.org/2000/svg">
<g clip-path="url(#clip0_256_86)">
<path d="M378 349.044V28.9552C378 15.8138 369.259 4.73962 357.269 1.18701L343.67 9.33173L192.668 170.336L187.928 185.134L185.17 199.336L232.258 375.313L239.537 378H349.045C365.033 378 378 365.036 378 349.044Z" fill="#EA6618"/>
<path d="M5.96611e-06 28.9554V349.045C-0.00301102 353.741 1.13825 358.368 3.32508 362.525C5.51191 366.681 8.67844 370.242 12.5508 372.9L21.8384 368.461L181.662 197.328L187.928 185.134L188.17 173.334L144.671 7.83169L138.079 0H28.9554C12.9642 0 5.96611e-06 12.9642 5.96611e-06 28.9554Z" fill="#D65813"/>
<path d="M187.928 185.134L357.269 1.18717C354.599 0.396994 351.829 -0.00286392 349.044 1.544e-05H138.082L187.928 185.134Z" fill="#E05E11"/>
<path d="M28.9554 378H239.537L187.928 185.134L12.5508 372.9C17.3718 376.231 23.0953 378.011 28.9554 378Z" fill="#DE5C16"/>
<path d="M140.155 143.274H161.152C169.527 174.845 179.057 202.555 189.679 227.565C201.713 199.427 210.537 171.697 217.999 143.274H237.853C228.958 178.593 214.423 214.208 197.791 250.956H180.229C164.252 216.13 150.653 180.324 140.155 143.274ZM70.8747 88.5581H117.572V288.83H70.668V273.394H99.4137V103.578H70.8747V88.5581ZM307.367 103.578H278.828V273.394H307.574V288.83H260.672V88.5581H307.367V103.578Z" fill="white"/>
</g>
<path d="M30.4646 416.091H43.6038L74.4987 491.553H75.564L106.459 416.091H119.598V507H109.3V437.93H108.412L80.0029 507H70.0597L41.6507 437.93H40.7629V507H30.4646V416.091ZM167.949 508.42C161.794 508.42 156.393 506.956 151.747 504.026C147.131 501.096 143.52 496.998 140.916 491.73C138.341 486.463 137.054 480.307 137.054 473.264C137.054 466.162 138.341 459.962 140.916 454.665C143.52 449.368 147.131 445.255 151.747 442.325C156.393 439.395 161.794 437.93 167.949 437.93C174.104 437.93 179.49 439.395 184.107 442.325C188.753 445.255 192.363 449.368 194.938 454.665C197.542 459.962 198.844 466.162 198.844 473.264C198.844 480.307 197.542 486.463 194.938 491.73C192.363 496.998 188.753 501.096 184.107 504.026C179.49 506.956 174.104 508.42 167.949 508.42ZM167.949 499.01C172.625 499.01 176.472 497.811 179.49 495.414C182.509 493.017 184.743 489.866 186.193 485.96C187.643 482.053 188.368 477.821 188.368 473.264C188.368 468.707 187.643 464.46 186.193 460.525C184.743 456.589 182.509 453.407 179.49 450.981C176.472 448.554 172.625 447.341 167.949 447.341C163.273 447.341 159.426 448.554 156.408 450.981C153.389 453.407 151.155 456.589 149.705 460.525C148.255 464.46 147.53 468.707 147.53 473.264C147.53 477.821 148.255 482.053 149.705 485.96C151.155 489.866 153.389 493.017 156.408 495.414C159.426 497.811 163.273 499.01 167.949 499.01ZM216.256 507V416.091H226.731V449.649H227.619C228.389 448.465 229.454 446.956 230.815 445.121C232.206 443.257 234.189 441.6 236.763 440.15C239.368 438.67 242.889 437.93 247.328 437.93C253.069 437.93 258.129 439.366 262.509 442.236C266.889 445.107 270.307 449.176 272.763 454.443C275.219 459.711 276.447 465.925 276.447 473.087C276.447 480.307 275.219 486.566 272.763 491.863C270.307 497.131 266.904 501.215 262.554 504.115C258.203 506.985 253.187 508.42 247.506 508.42C243.126 508.42 239.619 507.695 236.985 506.245C234.352 504.766 232.324 503.094 230.904 501.229C229.484 499.335 228.389 497.767 227.619 496.524H226.376V507H216.256ZM226.554 472.909C226.554 478.058 227.309 482.601 228.818 486.537C230.327 490.443 232.532 493.506 235.432 495.725C238.332 497.915 241.883 499.01 246.085 499.01C250.465 499.01 254.12 497.856 257.049 495.548C260.009 493.21 262.228 490.073 263.708 486.137C265.217 482.172 265.972 477.762 265.972 472.909C265.972 468.115 265.232 463.795 263.752 459.947C262.302 456.071 260.097 453.008 257.138 450.759C254.208 448.48 250.524 447.341 246.085 447.341C241.824 447.341 238.243 448.421 235.343 450.581C232.443 452.712 230.253 455.701 228.773 459.548C227.294 463.365 226.554 467.819 226.554 472.909ZM295.679 416.091L319.116 453.911H319.827L343.264 416.091H356.226L327.639 461.545L356.226 507H343.264L319.827 469.891H319.116L295.679 507H282.717L312.014 461.545L282.717 416.091H295.679Z" fill="black"/>
<defs>
<clipPath id="clip0_256_86">
<rect width="378" height="378" fill="white"/>
</clipPath>
</defs>
</svg>
