<svg width="400" height="514" viewBox="0 0 400 514" fill="none" xmlns="http://www.w3.org/2000/svg">
<path d="M179.052 1.88638C146.252 7.88638 115.586 32.153 98.7856 65.753C94.119 74.953 87.319 94.953 84.2523 108.42C83.0523 114.02 81.8523 127.22 81.4523 141.086C80.919 160.686 81.1856 166.953 83.4523 180.42C86.919 200.82 93.719 221.353 103.852 242.42C110.919 257.22 111.719 259.62 110.519 262.82C108.386 268.42 108.786 280.686 111.186 285.486C116.386 295.753 125.319 301.22 136.519 301.22C152.786 301.22 165.052 289.22 165.052 273.353C164.919 257.62 152.119 245.086 135.986 245.086C131.719 245.086 131.452 244.82 123.719 228.686C114.652 210.02 110.119 195.086 107.186 175.353C102.252 142.286 106.119 108.286 117.852 81.6197C122.919 70.0197 134.786 52.8197 142.252 46.0197C160.119 30.0197 191.586 20.8197 212.119 25.6197C234.386 30.8197 250.652 45.4864 264.119 72.553C269.586 83.353 275.186 100.686 276.519 110.286L277.319 116.953L289.586 120.82C299.052 123.753 301.852 124.153 302.119 122.686C302.386 121.753 301.719 115.086 300.519 107.886C291.452 50.953 257.186 9.75304 211.719 1.61971C199.319 -0.646956 192.652 -0.513623 179.052 1.88638Z" fill="#764ABC"/>
<path d="M165.452 118.687C162.119 119.353 157.586 121.887 153.852 125.22C138.652 138.687 141.986 162.153 160.252 171.087C166.786 174.287 168.919 174.687 175.186 174.02C183.986 173.087 191.719 168.553 196.119 161.62L199.052 156.82L218.386 157.62C255.052 158.953 284.119 168.553 316.919 190.153C339.052 204.687 355.052 222.687 366.386 245.753C379.586 272.687 380.519 293.487 369.186 315.487C349.986 352.553 309.719 365.62 261.452 350.287L249.186 346.287L238.519 354.687C232.786 359.353 227.852 363.487 227.852 364.02C227.719 364.42 232.386 366.687 238.119 368.82C276.919 383.887 313.719 383.087 347.052 366.553C374.519 352.82 391.186 333.62 397.852 307.887C401.319 294.287 399.986 266.687 395.186 251.753C387.719 228.82 376.519 211.62 356.119 191.353C318.919 154.42 265.586 133.087 210.786 133.087H198.386L192.919 127.22C185.719 119.353 176.252 116.42 165.452 118.687Z" fill="#764ABC"/>
<path d="M46.6517 188.153C14.3851 216.286 -2.2816 252.153 0.251738 288.42C2.78507 325.22 19.4517 351.486 49.7184 366.42C66.3851 374.553 77.5851 377.22 98.6517 378.02C120.518 378.953 135.185 376.686 158.652 368.953C208.918 352.553 247.852 320.686 273.052 275.22C277.718 266.686 279.052 265.22 282.785 264.553C288.385 263.486 297.318 256.02 300.252 249.886C302.652 244.82 303.052 232.42 301.052 227.22C300.385 225.353 297.718 221.486 295.052 218.553C282.918 205.22 261.852 206.953 251.052 222.153C247.452 227.353 247.052 229.086 247.052 237.62C247.052 246.02 247.585 248.02 250.785 252.953L254.518 258.553L248.252 268.686C233.985 291.486 217.052 308.82 193.718 324.153C161.452 345.353 134.518 354.42 103.852 354.42C86.5184 354.42 74.1184 351.886 61.7184 345.886C44.5184 337.62 33.0517 324.286 26.1184 304.42C15.4517 273.753 27.5851 237.753 57.9851 210.686C64.1184 205.086 65.9851 202.686 65.1851 201.22C64.5184 200.02 62.9184 194.42 61.5851 188.686C60.2517 183.086 58.9184 178.42 58.5184 178.42C58.1184 178.42 52.7851 182.82 46.6517 188.153Z" fill="#764ABC"/>
<path d="M210.919 403.62C210.652 403.886 210.385 412.42 210.385 422.553V440.82L205.452 438.286C193.185 432.02 175.585 436.953 167.719 448.953C162.119 457.22 160.519 463.886 160.652 476.42C160.919 499.086 171.719 513.086 189.052 513.086C195.852 513.086 204.519 509.486 208.385 505.22L210.919 502.286L213.052 506.686C215.052 510.953 215.319 511.086 224.119 511.486L233.052 511.886V457.886V404.02L222.252 403.486C216.385 403.22 211.185 403.353 210.919 403.62ZM207.852 455.22C210.119 457.22 210.385 459.353 210.385 473.22C210.385 488.42 210.252 488.953 206.919 491.62C202.252 495.22 198.919 496.153 193.852 495.22C188.385 494.153 185.052 488.686 184.119 479.22C182.385 462.686 189.452 450.686 200.119 452.153C202.919 452.553 206.385 453.886 207.852 455.22Z" fill="black"/>
<path d="M2.38477 458.953V511.753H15.0514H27.7181L27.3181 492.42L26.9181 473.086H31.8514C34.6514 473.086 37.7181 473.886 38.6514 474.953C39.7181 476.02 44.3848 483.486 49.1848 491.753C61.1848 512.686 59.9848 511.753 75.8514 511.753C83.1848 511.753 89.0514 511.22 88.7848 510.686C86.7848 505.62 64.2514 471.353 62.2514 470.286C59.3181 468.82 58.9181 466.42 61.4514 466.42C64.7848 466.42 74.1181 457.086 77.0514 451.086C79.4514 446.153 79.8514 443.22 79.4514 435.753C78.7848 423.62 74.2514 416.82 63.0514 411.086C55.3181 407.086 55.1848 407.086 28.7848 406.686L2.38477 406.153V458.953ZM51.1848 429.62C56.2514 434.686 57.0514 439.486 53.7181 447.22C51.1848 453.22 44.7848 456.02 34.7848 455.486L27.3181 455.086L27.0514 441.086C26.9181 433.353 27.0514 426.686 27.3181 426.02C27.5848 425.486 32.1181 425.086 37.3181 425.086C46.1181 425.086 46.9181 425.353 51.1848 429.62Z" fill="black"/>
<path d="M109.585 437.22C101.718 439.486 92.7848 446.686 88.5181 454.42C84.7848 461.087 84.3848 462.82 84.3848 473.753C84.5181 484.153 84.9181 486.687 87.9848 492.553C97.3181 510.287 116.918 517.22 138.518 510.42C143.185 508.953 149.051 506.153 151.451 504.02L155.718 500.42L151.718 495.353C146.918 489.62 143.451 489.087 135.718 493.087C132.785 494.553 127.985 495.753 125.051 495.753C115.585 495.753 110.251 491.487 107.185 481.353L106.251 478.42H129.318C145.585 478.42 153.051 477.887 154.118 476.82C155.051 475.887 155.718 472.42 155.718 469.087C155.718 454.953 147.185 442.153 135.051 437.886C128.118 435.62 116.251 435.22 109.585 437.22ZM132.118 455.887C133.318 457.487 134.385 460.153 134.385 461.887C134.385 465.087 134.251 465.087 121.051 465.087C106.385 465.087 105.851 464.687 110.385 457.487C114.785 450.153 126.651 449.353 132.118 455.887Z" fill="black"/>
<path d="M319.051 437.086C318.918 437.486 324.118 445.486 330.651 454.953C337.185 464.42 342.251 472.953 341.851 474.02C341.451 474.953 335.985 483.62 329.718 493.22C323.451 502.686 318.385 510.82 318.385 511.22C318.385 511.486 323.451 511.753 329.585 511.753C342.518 511.753 341.985 512.153 351.051 496.02C353.985 490.82 356.651 486.42 357.051 486.42C357.451 486.42 361.051 492.02 365.185 498.686L372.518 511.086L385.451 511.486C392.518 511.62 398.385 511.486 398.385 510.953C398.385 510.42 397.585 508.953 396.518 507.886C395.585 506.686 389.851 498.153 383.985 488.82L373.051 471.886L385.051 455.086C391.718 445.886 397.051 437.886 397.051 437.353C397.051 436.82 391.585 436.686 384.918 437.086L372.651 437.753L365.985 449.486L359.318 461.086L352.251 449.486L345.051 437.753L332.251 437.086C325.185 436.686 319.318 436.686 319.051 437.086Z" fill="black"/>
<path d="M243.984 460.687C243.851 488.02 245.051 496.153 250.384 503.487C257.984 514.02 275.451 516.153 287.051 508.02L292.651 504.153L293.984 507.887C295.451 511.62 295.851 511.753 304.651 511.753H313.718V474.42V437.087H302.118H290.384V463.753V490.42L286.118 493.087C280.384 496.553 273.851 496.553 270.384 493.087C267.851 490.553 267.718 488.687 267.718 463.753V437.087H255.984H244.251L243.984 460.687Z" fill="black"/>
</svg>
