<svg width="360" height="522" viewBox="0 0 360 522" fill="none" xmlns="http://www.w3.org/2000/svg">
<path d="M107.41 446.545L124.445 498.065H125.116L142.119 446.545H155.159L132.084 512H117.446L94.4025 446.545H107.41ZM163.269 512V462.909H174.838V512H163.269ZM169.086 455.942C167.253 455.942 165.676 455.335 164.355 454.12C163.034 452.884 162.374 451.403 162.374 449.678C162.374 447.93 163.034 446.45 164.355 445.235C165.676 443.999 167.253 443.381 169.086 443.381C170.939 443.381 172.516 443.999 173.816 445.235C175.137 446.45 175.797 447.93 175.797 449.678C175.797 451.403 175.137 452.884 173.816 454.12C172.516 455.335 170.939 455.942 169.086 455.942ZM211.249 462.909V471.858H183.028V462.909H211.249ZM189.996 451.148H201.565V497.234C201.565 498.79 201.8 499.983 202.268 500.814C202.758 501.624 203.398 502.178 204.186 502.476C204.974 502.774 205.848 502.923 206.807 502.923C207.531 502.923 208.192 502.87 208.788 502.763C209.406 502.657 209.875 502.561 210.194 502.476L212.144 511.521C211.526 511.734 210.642 511.968 209.491 512.224C208.362 512.479 206.977 512.629 205.336 512.671C202.439 512.756 199.829 512.32 197.506 511.361C195.184 510.381 193.341 508.868 191.977 506.822C190.635 504.777 189.974 502.22 189.996 499.152V451.148ZM242.131 512.959C237.209 512.959 232.958 511.936 229.379 509.891C225.82 507.824 223.082 504.905 221.165 501.134C219.247 497.341 218.288 492.877 218.288 487.742C218.288 482.692 219.247 478.261 221.165 474.447C223.104 470.612 225.81 467.629 229.283 465.498C232.756 463.346 236.836 462.27 241.523 462.27C244.549 462.27 247.404 462.76 250.089 463.74C252.795 464.699 255.181 466.19 257.248 468.214C259.336 470.239 260.977 472.817 262.17 475.949C263.363 479.06 263.96 482.767 263.96 487.071V490.619H223.722V482.82H252.869C252.848 480.604 252.369 478.634 251.431 476.908C250.494 475.161 249.183 473.786 247.5 472.785C245.838 471.783 243.899 471.283 241.683 471.283C239.318 471.283 237.241 471.858 235.451 473.009C233.661 474.138 232.266 475.629 231.264 477.483C230.284 479.315 229.783 481.329 229.762 483.523V490.331C229.762 493.186 230.284 495.636 231.328 497.682C232.372 499.706 233.832 501.261 235.707 502.348C237.582 503.413 239.776 503.946 242.29 503.946C243.974 503.946 245.497 503.712 246.861 503.243C248.224 502.753 249.407 502.039 250.408 501.102C251.41 500.164 252.166 499.003 252.678 497.618L263.48 498.832C262.798 501.687 261.499 504.18 259.581 506.311C257.685 508.42 255.256 510.061 252.294 511.233C249.332 512.384 245.945 512.959 242.131 512.959Z" fill="#303D4E"/>
<path d="M358.362 53.2795L189.466 355.301C185.976 361.537 177.017 361.573 173.479 355.371L1.23099 53.3148C-2.62962 46.5462 3.14806 38.3575 10.8193 39.7247L179.898 69.9422C180.977 70.1392 182.083 70.1392 183.162 69.9422L348.701 39.7718C356.339 38.381 362.152 46.5021 358.362 53.2795Z" fill="url(#paint0_linear_256_120)"/>
<path d="M260.43 0.0884638L135.45 24.5753C134.453 24.7702 133.548 25.2909 132.879 26.0557C132.209 26.8204 131.813 27.7859 131.751 28.8005L124.057 158.667C124.015 159.38 124.14 160.092 124.422 160.747C124.703 161.403 125.133 161.984 125.678 162.444C126.223 162.905 126.868 163.232 127.561 163.4C128.254 163.568 128.977 163.573 129.673 163.413L164.474 155.371C165.223 155.199 166.004 155.218 166.744 155.426C167.485 155.634 168.161 156.024 168.711 156.562C169.262 157.099 169.668 157.766 169.893 158.501C170.119 159.236 170.156 160.016 170.002 160.77L159.661 211.399C159.503 212.178 159.55 212.985 159.797 213.741C160.044 214.496 160.484 215.175 161.072 215.71C161.66 216.245 162.377 216.618 163.153 216.792C163.929 216.967 164.736 216.937 165.497 216.706L186.985 210.17C190.316 209.158 193.521 212.087 192.821 215.498L176.385 295.024C175.362 299.999 181.977 302.71 184.735 298.446L186.573 295.6L288.425 92.3373C290.136 88.9266 287.187 85.0454 283.456 85.7687L247.628 92.6843C246.857 92.8341 246.061 92.7831 245.315 92.5364C244.57 92.2896 243.9 91.8553 243.371 91.2751C242.841 90.695 242.47 89.9885 242.292 89.2235C242.115 88.4585 242.137 87.6606 242.356 86.9066L265.732 5.86615C265.952 5.10945 265.973 4.30889 265.793 3.54165C265.614 2.77441 265.239 2.06637 264.707 1.48577C264.174 0.905176 263.501 0.471608 262.752 0.226864C262.003 -0.017879 261.203 -0.0655442 260.43 0.0884638Z" fill="url(#paint1_linear_256_120)"/>
<defs>
<linearGradient id="paint0_linear_256_120" x1="-2.97893" y1="28.9327" x2="207.234" y2="314.418" gradientUnits="userSpaceOnUse">
<stop stop-color="#41D1FF"/>
<stop offset="1" stop-color="#BD34FE"/>
</linearGradient>
<linearGradient id="paint1_linear_256_120" x1="170.193" y1="6.73347" x2="208.219" y2="267.591" gradientUnits="userSpaceOnUse">
<stop stop-color="#FFEA83"/>
<stop offset="0.083" stop-color="#FFDD35"/>
<stop offset="1" stop-color="#FFA800"/>
</linearGradient>
</defs>
</svg>
