<svg width="360" height="513" viewBox="0 0 360 513" fill="none" xmlns="http://www.w3.org/2000/svg">
<path d="M90.7793 430L111.6 492.969H112.42L133.201 430H149.139L120.936 510H103.045L74.8809 430H90.7793ZM159.051 510V450H173.191V510H159.051ZM166.16 441.484C163.921 441.484 161.993 440.742 160.379 439.258C158.764 437.747 157.957 435.937 157.957 433.828C157.957 431.693 158.764 429.883 160.379 428.398C161.993 426.888 163.921 426.133 166.16 426.133C168.426 426.133 170.353 426.888 171.941 428.398C173.556 429.883 174.363 431.693 174.363 433.828C174.363 435.937 173.556 437.747 171.941 439.258C170.353 440.742 168.426 441.484 166.16 441.484ZM217.693 450V460.937H183.201V450H217.693ZM191.717 435.625H205.857V491.953C205.857 493.854 206.144 495.313 206.717 496.328C207.316 497.318 208.097 497.995 209.061 498.359C210.024 498.724 211.092 498.906 212.264 498.906C213.149 498.906 213.956 498.841 214.686 498.711C215.441 498.581 216.014 498.464 216.404 498.359L218.787 509.414C218.032 509.674 216.951 509.961 215.545 510.273C214.165 510.586 212.472 510.768 210.467 510.82C206.925 510.924 203.735 510.391 200.896 509.219C198.058 508.021 195.805 506.172 194.139 503.672C192.498 501.172 191.691 498.047 191.717 494.297V435.625ZM255.437 511.172C249.422 511.172 244.227 509.922 239.852 507.422C235.503 504.896 232.156 501.328 229.813 496.719C227.469 492.083 226.297 486.628 226.297 480.352C226.297 474.18 227.469 468.763 229.813 464.102C232.182 459.414 235.49 455.768 239.734 453.164C243.979 450.534 248.966 449.219 254.695 449.219C258.393 449.219 261.883 449.818 265.164 451.016C268.471 452.187 271.388 454.01 273.914 456.484C276.466 458.958 278.471 462.109 279.93 465.937C281.388 469.74 282.117 474.271 282.117 479.531V483.867H232.938V474.336H268.563C268.536 471.628 267.951 469.219 266.805 467.109C265.659 464.974 264.057 463.294 262 462.07C259.969 460.846 257.599 460.234 254.891 460.234C252 460.234 249.461 460.937 247.273 462.344C245.086 463.724 243.38 465.547 242.156 467.812C240.958 470.052 240.346 472.513 240.32 475.195V483.516C240.32 487.005 240.958 490 242.234 492.5C243.51 494.974 245.294 496.875 247.586 498.203C249.878 499.505 252.56 500.156 255.633 500.156C257.69 500.156 259.552 499.87 261.219 499.297C262.885 498.698 264.331 497.826 265.555 496.68C266.779 495.534 267.703 494.115 268.328 492.422L281.531 493.906C280.698 497.396 279.109 500.443 276.766 503.047C274.448 505.625 271.479 507.63 267.859 509.062C264.24 510.469 260.099 511.172 255.437 511.172Z" fill="#303D4E"/>
<path d="M358.362 53.2795L189.466 355.301C185.976 361.537 177.017 361.573 173.479 355.371L1.23099 53.3148C-2.62962 46.5462 3.14806 38.3575 10.8193 39.7247L179.898 69.9422C180.977 70.1392 182.083 70.1392 183.162 69.9422L348.701 39.7718C356.339 38.381 362.152 46.5021 358.362 53.2795Z" fill="url(#paint0_linear_256_121)"/>
<path d="M260.43 0.0884638L135.45 24.5753C134.453 24.7702 133.548 25.2909 132.879 26.0557C132.209 26.8204 131.813 27.7859 131.751 28.8005L124.057 158.667C124.015 159.38 124.14 160.092 124.422 160.747C124.703 161.403 125.133 161.984 125.678 162.444C126.223 162.905 126.868 163.232 127.561 163.4C128.254 163.568 128.977 163.573 129.673 163.413L164.474 155.371C165.223 155.199 166.004 155.218 166.744 155.426C167.485 155.634 168.161 156.024 168.711 156.562C169.262 157.099 169.668 157.766 169.893 158.501C170.119 159.236 170.156 160.016 170.002 160.77L159.661 211.399C159.503 212.178 159.55 212.985 159.797 213.741C160.044 214.496 160.484 215.175 161.072 215.71C161.66 216.245 162.377 216.618 163.153 216.792C163.929 216.967 164.736 216.937 165.497 216.706L186.985 210.17C190.316 209.158 193.521 212.087 192.821 215.498L176.385 295.024C175.362 299.999 181.977 302.71 184.735 298.446L186.573 295.6L288.425 92.3373C290.136 88.9266 287.187 85.0454 283.456 85.7687L247.628 92.6843C246.857 92.8341 246.061 92.7831 245.315 92.5364C244.57 92.2896 243.9 91.8553 243.371 91.2751C242.841 90.695 242.47 89.9885 242.292 89.2235C242.115 88.4585 242.137 87.6606 242.356 86.9066L265.732 5.86615C265.952 5.10945 265.973 4.30889 265.793 3.54165C265.614 2.77441 265.239 2.06637 264.707 1.48577C264.174 0.905176 263.501 0.471608 262.752 0.226864C262.003 -0.017879 261.203 -0.0655442 260.43 0.0884638Z" fill="url(#paint1_linear_256_121)"/>
<defs>
<linearGradient id="paint0_linear_256_121" x1="-2.97893" y1="28.9327" x2="207.234" y2="314.418" gradientUnits="userSpaceOnUse">
<stop stop-color="#41D1FF"/>
<stop offset="1" stop-color="#BD34FE"/>
</linearGradient>
<linearGradient id="paint1_linear_256_121" x1="170.193" y1="6.73347" x2="208.219" y2="267.591" gradientUnits="userSpaceOnUse">
<stop stop-color="#FFEA83"/>
<stop offset="0.083" stop-color="#FFDD35"/>
<stop offset="1" stop-color="#FFA800"/>
</linearGradient>
</defs>
</svg>
