<svg width="360" height="513" viewBox="0 0 360 513" fill="none" xmlns="http://www.w3.org/2000/svg">
<path d="M79.181 417.091L102.84 488.646H103.773L127.388 417.091H145.498L113.449 508H93.1192L61.1146 417.091H79.181ZM156.762 508V439.818H172.831V508H156.762ZM164.841 430.141C162.296 430.141 160.106 429.298 158.271 427.611C156.437 425.895 155.519 423.838 155.519 421.441C155.519 419.014 156.437 416.958 158.271 415.271C160.106 413.555 162.296 412.696 164.841 412.696C167.416 412.696 169.606 413.555 171.411 415.271C173.245 416.958 174.163 419.014 174.163 421.441C174.163 423.838 173.245 425.895 171.411 427.611C169.606 429.298 167.416 430.141 164.841 430.141ZM223.402 439.818V452.247H184.206V439.818H223.402ZM193.883 423.483H209.952V487.492C209.952 489.652 210.277 491.31 210.928 492.464C211.609 493.588 212.497 494.358 213.592 494.772C214.686 495.186 215.9 495.393 217.231 495.393C218.238 495.393 219.155 495.319 219.984 495.172C220.842 495.024 221.493 494.89 221.937 494.772L224.644 507.334C223.786 507.63 222.558 507.956 220.96 508.311C219.392 508.666 217.468 508.873 215.19 508.932C211.165 509.051 207.54 508.444 204.314 507.112C201.089 505.751 198.529 503.65 196.635 500.809C194.771 497.968 193.853 494.417 193.883 490.156V423.483ZM266.293 509.332C259.457 509.332 253.553 507.911 248.581 505.07C243.639 502.2 239.837 498.146 237.173 492.908C234.51 487.64 233.178 481.44 233.178 474.309C233.178 467.295 234.51 461.14 237.173 455.843C239.866 450.516 243.625 446.373 248.448 443.414C253.272 440.425 258.939 438.93 265.449 438.93C269.651 438.93 273.617 439.611 277.346 440.972C281.104 442.304 284.418 444.375 287.289 447.187C290.189 449.998 292.467 453.579 294.125 457.929C295.782 462.25 296.61 467.399 296.61 473.376V478.304H240.724V467.473H281.207C281.178 464.395 280.512 461.658 279.21 459.261C277.908 456.834 276.088 454.925 273.75 453.534C271.442 452.144 268.749 451.448 265.671 451.448C262.386 451.448 259.501 452.247 257.015 453.845C254.529 455.414 252.591 457.485 251.2 460.06C249.839 462.605 249.144 465.401 249.114 468.449V477.904C249.114 481.87 249.839 485.273 251.289 488.114C252.739 490.925 254.766 493.085 257.37 494.594C259.975 496.074 263.023 496.814 266.515 496.814C268.852 496.814 270.968 496.488 272.862 495.837C274.756 495.157 276.399 494.165 277.789 492.863C279.18 491.561 280.231 489.948 280.941 488.025L295.945 489.712C294.998 493.677 293.192 497.139 290.529 500.099C287.895 503.028 284.522 505.307 280.408 506.935C276.295 508.533 271.59 509.332 266.293 509.332Z" fill="#303D4E"/>
<path d="M358.362 53.2795L189.466 355.301C185.976 361.537 177.017 361.573 173.479 355.371L1.23099 53.3148C-2.62962 46.5462 3.14806 38.3575 10.8193 39.7247L179.898 69.9422C180.977 70.1392 182.083 70.1392 183.162 69.9422L348.701 39.7718C356.339 38.381 362.152 46.5021 358.362 53.2795Z" fill="url(#paint0_linear_257_145)"/>
<path d="M260.43 0.0884638L135.45 24.5753C134.453 24.7702 133.548 25.2909 132.879 26.0557C132.209 26.8204 131.813 27.7859 131.751 28.8005L124.057 158.667C124.015 159.38 124.14 160.092 124.422 160.747C124.703 161.403 125.133 161.984 125.678 162.444C126.223 162.905 126.868 163.232 127.561 163.4C128.254 163.568 128.977 163.573 129.673 163.413L164.474 155.371C165.223 155.199 166.004 155.218 166.744 155.426C167.485 155.634 168.161 156.024 168.711 156.562C169.262 157.099 169.668 157.766 169.893 158.501C170.119 159.236 170.156 160.016 170.002 160.77L159.661 211.399C159.503 212.178 159.55 212.985 159.797 213.741C160.044 214.496 160.484 215.175 161.072 215.71C161.66 216.245 162.377 216.618 163.153 216.792C163.929 216.967 164.736 216.937 165.497 216.706L186.985 210.17C190.316 209.158 193.521 212.087 192.821 215.498L176.385 295.024C175.362 299.999 181.977 302.71 184.735 298.446L186.573 295.6L288.425 92.3373C290.136 88.9266 287.187 85.0454 283.456 85.7687L247.628 92.6843C246.857 92.8341 246.061 92.7831 245.315 92.5364C244.57 92.2896 243.9 91.8553 243.371 91.2751C242.841 90.695 242.47 89.9885 242.292 89.2235C242.115 88.4585 242.137 87.6606 242.356 86.9066L265.732 5.86615C265.952 5.10945 265.973 4.30889 265.793 3.54165C265.614 2.77441 265.239 2.06637 264.707 1.48577C264.174 0.905176 263.501 0.471608 262.752 0.226864C262.003 -0.017879 261.203 -0.0655442 260.43 0.0884638Z" fill="url(#paint1_linear_257_145)"/>
<defs>
<linearGradient id="paint0_linear_257_145" x1="-2.97893" y1="28.9327" x2="207.234" y2="314.418" gradientUnits="userSpaceOnUse">
<stop stop-color="#41D1FF"/>
<stop offset="1" stop-color="#BD34FE"/>
</linearGradient>
<linearGradient id="paint1_linear_257_145" x1="170.193" y1="6.73347" x2="208.219" y2="267.591" gradientUnits="userSpaceOnUse">
<stop stop-color="#FFEA83"/>
<stop offset="0.083" stop-color="#FFDD35"/>
<stop offset="1" stop-color="#FFA800"/>
</linearGradient>
</defs>
</svg>
