<svg width="462" height="518" viewBox="0 0 462 518" fill="none" xmlns="http://www.w3.org/2000/svg">
<path d="M21.1186 513L1.95668 443.909H12.9208L26.3814 497.414H27.0224L41.0227 443.909H51.8857L65.886 497.448H66.527L79.9538 443.909H90.9517L71.756 513H61.2642L46.7241 461.249H46.1843L31.6442 513H21.1186ZM100.457 513V443.909H143.774V452.883H110.881V473.934H141.513V482.874H110.881V504.026H144.178V513H100.457ZM157.698 513V443.909H183C187.903 443.909 191.962 444.719 195.178 446.338C198.395 447.935 200.801 450.105 202.398 452.849C203.995 455.57 204.793 458.64 204.793 462.059C204.793 464.938 204.265 467.367 203.208 469.346C202.151 471.303 200.734 472.877 198.957 474.069C197.203 475.238 195.268 476.093 193.154 476.633V477.308C195.448 477.42 197.686 478.162 199.868 479.534C202.072 480.884 203.894 482.806 205.333 485.303C206.772 487.799 207.492 490.836 207.492 494.412C207.492 497.943 206.66 501.114 204.996 503.925C203.354 506.714 200.812 508.929 197.371 510.571C193.93 512.19 189.533 513 184.181 513H157.698ZM168.122 504.06H183.169C188.161 504.06 191.737 503.093 193.896 501.159C196.056 499.225 197.135 496.807 197.135 493.906C197.135 491.724 196.584 489.722 195.482 487.901C194.38 486.079 192.806 484.628 190.759 483.549C188.735 482.469 186.328 481.929 183.54 481.929H168.122V504.06ZM168.122 473.799H182.089C184.428 473.799 186.531 473.349 188.398 472.45C190.287 471.55 191.782 470.29 192.884 468.671C194.009 467.029 194.571 465.095 194.571 462.869C194.571 460.012 193.57 457.617 191.569 455.683C189.567 453.749 186.497 452.782 182.359 452.782H168.122V473.799ZM219.856 513V443.909H244.483C249.859 443.909 254.312 444.887 257.843 446.844C261.374 448.801 264.016 451.477 265.771 454.873C267.525 458.247 268.402 462.048 268.402 466.276C268.402 470.527 267.514 474.35 265.737 477.746C263.983 481.12 261.329 483.796 257.775 485.775C254.244 487.732 249.802 488.71 244.45 488.71H227.514V479.871H243.505C246.901 479.871 249.656 479.287 251.77 478.117C253.884 476.925 255.436 475.306 256.426 473.259C257.415 471.213 257.91 468.885 257.91 466.276C257.91 463.667 257.415 461.35 256.426 459.326C255.436 457.302 253.873 455.717 251.737 454.57C249.622 453.423 246.834 452.849 243.37 452.849H230.281V513H219.856ZM279.13 513H268.065L292.928 443.909H304.972L329.835 513H318.77L299.237 456.459H298.697L279.13 513ZM280.985 485.944H316.88V494.715H280.985V485.944ZM393.95 466.377H383.424C383.019 464.128 382.266 462.149 381.164 460.44C380.062 458.73 378.712 457.28 377.116 456.088C375.519 454.896 373.731 453.996 371.752 453.389C369.795 452.782 367.715 452.478 365.51 452.478C361.53 452.478 357.965 453.479 354.816 455.48C351.69 457.482 349.216 460.417 347.394 464.286C345.595 468.154 344.695 472.877 344.695 478.455C344.695 484.077 345.595 488.823 347.394 492.691C349.216 496.559 351.701 499.483 354.85 501.462C357.999 503.442 361.541 504.431 365.477 504.431C367.658 504.431 369.727 504.139 371.684 503.554C373.663 502.947 375.451 502.058 377.048 500.889C378.645 499.719 379.994 498.291 381.096 496.604C382.221 494.895 382.997 492.938 383.424 490.734L393.95 490.768C393.387 494.164 392.297 497.29 390.677 500.147C389.081 502.98 387.023 505.432 384.504 507.501C382.007 509.548 379.151 511.133 375.935 512.258C372.719 513.382 369.21 513.945 365.409 513.945C359.427 513.945 354.097 512.528 349.419 509.694C344.74 506.838 341.052 502.756 338.353 497.448C335.677 492.14 334.339 485.809 334.339 478.455C334.339 471.078 335.688 464.747 338.387 459.461C341.086 454.154 344.774 450.083 349.452 447.249C354.13 444.393 359.449 442.964 365.409 442.964C369.075 442.964 372.494 443.493 375.665 444.55C378.859 445.585 381.726 447.114 384.268 449.138C386.809 451.14 388.912 453.591 390.576 456.493C392.24 459.371 393.365 462.666 393.95 466.377ZM406.424 513V443.909H416.848V476.903H417.691L446.67 443.909H459.794L431.928 475.013L459.895 513H447.345L425.012 482.132L416.848 491.51V513H406.424Z" fill="#303D4E"/>
<path d="M392.369 294.942L237.304 382.726V314.352L333.775 261.226L392.369 294.942ZM403 285.343V101.908L346.259 134.713V252.599L402.97 285.313L403 285.343ZM68.6313 294.942L223.544 382.665V314.352L127.043 261.226L68.6313 294.942ZM58 285.343V101.908L114.741 134.713V252.599L58 285.343ZM64.6521 90.0317L223.696 0V66.0961L121.788 122.138L120.968 122.594L64.6521 90.0317ZM396.287 90.0317L237.304 0V66.0961L339.212 122.108L340.032 122.563L396.348 90.0317H396.287Z" fill="#8ED6FB"/>
<path d="M223.697 298.8L128.35 246.342V142.52L223.697 197.438V298.8ZM237.305 298.8L332.652 246.403V142.52L237.305 197.438V298.8ZM134.819 130.613L230.501 77.9429L326.182 130.613L230.501 185.774L134.819 130.613Z" fill="#1C78C0"/>
</svg>
