<svg width="389" height="526" viewBox="0 0 389 526" fill="none" xmlns="http://www.w3.org/2000/svg">
<path d="M17.7841 507L1.64773 448.818H10.8807L22.2159 493.875H22.7557L34.5455 448.818H43.6932L55.483 493.903H56.0227L67.3295 448.818H76.5909L60.4261 507H51.5909L39.3466 463.42H38.892L26.6477 507H17.7841ZM84.5952 507V448.818H121.072V456.375H93.3736V474.102H119.169V481.631H93.3736V499.443H121.413V507H84.5952ZM132.798 507V448.818H154.105C158.234 448.818 161.652 449.5 164.361 450.864C167.069 452.208 169.096 454.036 170.44 456.347C171.785 458.638 172.457 461.223 172.457 464.102C172.457 466.527 172.012 468.572 171.122 470.239C170.232 471.886 169.039 473.212 167.543 474.216C166.065 475.201 164.437 475.92 162.656 476.375V476.943C164.588 477.038 166.473 477.663 168.31 478.818C170.166 479.955 171.7 481.574 172.912 483.676C174.124 485.778 174.73 488.335 174.73 491.347C174.73 494.32 174.029 496.991 172.628 499.358C171.245 501.706 169.105 503.572 166.207 504.955C163.31 506.318 159.607 507 155.099 507H132.798ZM141.577 499.472H154.247C158.452 499.472 161.463 498.657 163.281 497.028C165.099 495.4 166.009 493.364 166.009 490.92C166.009 489.083 165.545 487.398 164.616 485.864C163.688 484.33 162.363 483.108 160.639 482.199C158.935 481.29 156.908 480.835 154.56 480.835H141.577V499.472ZM141.577 473.989H153.338C155.308 473.989 157.079 473.61 158.651 472.852C160.241 472.095 161.501 471.034 162.429 469.67C163.376 468.288 163.849 466.659 163.849 464.784C163.849 462.379 163.007 460.362 161.321 458.733C159.635 457.104 157.05 456.29 153.565 456.29H141.577V473.989ZM185.142 507V448.818H205.881C210.407 448.818 214.157 449.642 217.131 451.29C220.104 452.937 222.33 455.191 223.807 458.051C225.284 460.892 226.023 464.093 226.023 467.653C226.023 471.233 225.275 474.453 223.778 477.312C222.301 480.153 220.066 482.407 217.074 484.074C214.1 485.722 210.36 486.545 205.852 486.545H191.591V479.102H205.057C207.917 479.102 210.237 478.61 212.017 477.625C213.797 476.621 215.104 475.258 215.938 473.534C216.771 471.811 217.188 469.85 217.188 467.653C217.188 465.456 216.771 463.506 215.938 461.801C215.104 460.097 213.788 458.761 211.989 457.795C210.208 456.83 207.86 456.347 204.943 456.347H193.92V507H185.142ZM235.057 507H225.739L246.676 448.818H256.818L277.756 507H268.438L251.989 459.386H251.534L235.057 507ZM236.619 484.216H266.847V491.602H236.619V484.216ZM331.747 467.739H322.884C322.543 465.845 321.908 464.178 320.98 462.739C320.052 461.299 318.916 460.078 317.571 459.074C316.226 458.07 314.721 457.312 313.054 456.801C311.406 456.29 309.654 456.034 307.798 456.034C304.446 456.034 301.444 456.877 298.793 458.562C296.16 460.248 294.077 462.72 292.543 465.977C291.027 469.235 290.27 473.212 290.27 477.909C290.27 482.644 291.027 486.64 292.543 489.898C294.077 493.155 296.17 495.617 298.821 497.284C301.473 498.951 304.455 499.784 307.77 499.784C309.607 499.784 311.349 499.538 312.997 499.045C314.664 498.534 316.17 497.786 317.514 496.801C318.859 495.816 319.995 494.614 320.923 493.193C321.87 491.754 322.524 490.106 322.884 488.25L331.747 488.278C331.274 491.138 330.355 493.771 328.991 496.176C327.647 498.562 325.914 500.627 323.793 502.369C321.69 504.093 319.285 505.428 316.577 506.375C313.868 507.322 310.914 507.795 307.713 507.795C302.675 507.795 298.187 506.602 294.247 504.216C290.308 501.811 287.202 498.373 284.929 493.903C282.675 489.434 281.548 484.102 281.548 477.909C281.548 471.697 282.685 466.366 284.957 461.915C287.23 457.445 290.336 454.017 294.276 451.631C298.215 449.225 302.694 448.023 307.713 448.023C310.8 448.023 313.679 448.468 316.349 449.358C319.039 450.229 321.454 451.517 323.594 453.222C325.734 454.907 327.505 456.972 328.906 459.415C330.308 461.839 331.255 464.614 331.747 467.739ZM342.251 507V448.818H351.03V476.602H351.74L376.143 448.818H387.195L363.729 475.011L387.28 507H376.712L357.905 481.006L351.03 488.903V507H342.251Z" fill="#303D4E"/>
<path d="M356.369 294.942L201.304 382.726V314.352L297.775 261.226L356.369 294.942ZM367 285.343V101.908L310.259 134.713V252.599L366.97 285.313L367 285.343ZM32.6313 294.942L187.544 382.665V314.352L91.0425 261.226L32.6313 294.942ZM22 285.343V101.908L78.7406 134.713V252.599L22 285.343ZM28.6521 90.0317L187.696 0V66.0961L85.7876 122.138L84.9675 122.594L28.6521 90.0317ZM360.287 90.0317L201.304 0V66.0961L303.212 122.108L304.032 122.563L360.348 90.0317H360.287Z" fill="#8ED6FB"/>
<path d="M187.697 298.8L92.3496 246.342V142.52L187.697 197.438V298.8ZM201.305 298.8L296.652 246.403V142.52L201.305 197.438V298.8ZM98.8195 130.613L194.501 77.9429L290.182 130.613L194.501 185.774L98.8195 130.613Z" fill="#1C78C0"/>
</svg>
