<svg width="541" height="525" viewBox="0 0 541 525" fill="none" xmlns="http://www.w3.org/2000/svg">
<path d="M24.4531 519L2.26563 439H14.9609L30.5469 500.953H31.2891L47.5 439H60.0781L76.2891 500.992H77.0313L92.5781 439H105.313L83.0859 519H70.9375L54.1016 459.078H53.4766L36.6406 519H24.4531ZM116.318 519V439H166.475V449.391H128.389V473.766H163.857V484.117H128.389V508.609H166.943V519H116.318ZM182.598 519V439H211.895C217.572 439 222.272 439.937 225.996 441.812C229.72 443.661 232.507 446.174 234.355 449.352C236.204 452.503 237.129 456.057 237.129 460.016C237.129 463.349 236.517 466.161 235.293 468.453C234.069 470.719 232.428 472.542 230.371 473.922C228.34 475.276 226.1 476.266 223.652 476.891V477.672C226.309 477.802 228.9 478.661 231.426 480.25C233.978 481.812 236.087 484.039 237.754 486.93C239.421 489.82 240.254 493.336 240.254 497.477C240.254 501.565 239.29 505.237 237.363 508.492C235.462 511.721 232.52 514.286 228.535 516.187C224.551 518.062 219.46 519 213.262 519H182.598ZM194.668 508.648H212.09C217.871 508.648 222.012 507.529 224.512 505.289C227.012 503.049 228.262 500.25 228.262 496.891C228.262 494.365 227.624 492.047 226.348 489.937C225.072 487.828 223.249 486.148 220.879 484.898C218.535 483.648 215.749 483.023 212.52 483.023H194.668V508.648ZM194.668 473.609H210.84C213.548 473.609 215.983 473.089 218.145 472.047C220.332 471.005 222.064 469.547 223.34 467.672C224.642 465.771 225.293 463.531 225.293 460.953C225.293 457.646 224.134 454.872 221.816 452.633C219.499 450.393 215.944 449.273 211.152 449.273H194.668V473.609ZM254.57 519V439H283.086C289.31 439 294.466 440.133 298.555 442.398C302.643 444.664 305.703 447.763 307.734 451.695C309.766 455.602 310.781 460.003 310.781 464.898C310.781 469.82 309.753 474.247 307.695 478.18C305.664 482.086 302.591 485.185 298.477 487.477C294.388 489.742 289.245 490.875 283.047 490.875H263.438V480.641H281.953C285.885 480.641 289.076 479.964 291.523 478.609C293.971 477.229 295.768 475.354 296.914 472.984C298.06 470.615 298.633 467.919 298.633 464.898C298.633 461.878 298.06 459.195 296.914 456.852C295.768 454.508 293.958 452.672 291.484 451.344C289.036 450.016 285.807 449.352 281.797 449.352H266.641V519H254.57ZM323.203 519H310.391L339.18 439H353.125L381.914 519H369.102L346.484 453.531H345.859L323.203 519ZM325.352 487.672H366.914V497.828H325.352V487.672ZM456.152 465.016H443.965C443.496 462.411 442.624 460.12 441.348 458.141C440.072 456.161 438.509 454.482 436.66 453.102C434.811 451.721 432.741 450.68 430.449 449.977C428.184 449.273 425.775 448.922 423.223 448.922C418.613 448.922 414.486 450.081 410.84 452.398C407.22 454.716 404.355 458.115 402.246 462.594C400.163 467.073 399.121 472.542 399.121 479C399.121 485.51 400.163 491.005 402.246 495.484C404.355 499.964 407.233 503.349 410.879 505.641C414.525 507.932 418.626 509.078 423.184 509.078C425.71 509.078 428.105 508.74 430.371 508.062C432.663 507.359 434.733 506.331 436.582 504.977C438.431 503.622 439.993 501.969 441.27 500.016C442.572 498.036 443.47 495.771 443.965 493.219L456.152 493.258C455.501 497.19 454.238 500.81 452.363 504.117C450.514 507.398 448.132 510.237 445.215 512.633C442.324 515.003 439.017 516.839 435.293 518.141C431.569 519.443 427.507 520.094 423.105 520.094C416.178 520.094 410.007 518.453 404.59 515.172C399.173 511.865 394.902 507.138 391.777 500.992C388.678 494.846 387.129 487.516 387.129 479C387.129 470.458 388.691 463.128 391.816 457.008C394.941 450.862 399.212 446.148 404.629 442.867C410.046 439.56 416.204 437.906 423.105 437.906C427.35 437.906 431.309 438.518 434.98 439.742C438.678 440.94 441.999 442.711 444.941 445.055C447.884 447.372 450.319 450.211 452.246 453.57C454.173 456.904 455.475 460.719 456.152 465.016ZM470.596 519V439H482.666V477.203H483.643L517.197 439H532.393L500.127 475.016L532.51 519H517.979L492.119 483.258L482.666 494.117V519H470.596Z" fill="#303D4E"/>
<path d="M432.369 294.942L277.304 382.726V314.352L373.775 261.226L432.369 294.942ZM443 285.343V101.908L386.259 134.713V252.599L442.97 285.313L443 285.343ZM108.631 294.942L263.544 382.665V314.352L167.043 261.226L108.631 294.942ZM98 285.343V101.908L154.741 134.713V252.599L98 285.343ZM104.652 90.0317L263.696 0V66.0961L161.788 122.138L160.968 122.594L104.652 90.0317ZM436.287 90.0317L277.304 0V66.0961L379.212 122.108L380.032 122.563L436.348 90.0317H436.287Z" fill="#8ED6FB"/>
<path d="M263.697 298.8L168.35 246.342V142.52L263.697 197.438V298.8ZM277.305 298.8L372.652 246.403V142.52L277.305 197.438V298.8ZM174.819 130.613L270.501 77.9429L366.182 130.613L270.501 185.774L174.819 130.613Z" fill="#1C78C0"/>
</svg>
